PathFileType	4	(X/Y/Z)	C:/Users/opensim2020/Desktop/walking_exp_matlab/subject06_walking15_straight_04.trc																																																																																																																																											
DataRate	CameraRate	NumFrames	NumMarkers	Units	OrigDataRate	OrigDataStartFrame	OrigNumFrames																																																																																																																																							
100	100	6	47	mm	100	2920	157																																																																																																																																							
Frame#	Time	LFHD			RFHD			LBHD			RBHD			C7			T10			CLAV			STRN			RBAK			LSHO			LUPA			LELB			LFRM			LWRA			LWRB			LFIN			RSHO			RUPA			RELB			RFRM			RWRA			RWRB			RFIN			LASI			RASI			LPSI			RPSI			LTHI			LKNE			LTIB			LANK			LHEE			LTOE			RTHI			RKNE			RTIB			RANK			RHEE			RTOE			*39			*40			*41			*42			*43			*44			*45			*46		
		X1	Y1	Z1	X2	Y2	Z2	X3	Y3	Z3	X4	Y4	Z4	X5	Y5	Z5	X6	Y6	Z6	X7	Y7	Z7	X8	Y8	Z8	X9	Y9	Z9	X10	Y10	Z10	X11	Y11	Z11	X12	Y12	Z12	X13	Y13	Z13	X14	Y14	Z14	X15	Y15	Z15	X16	Y16	Z16	X17	Y17	Z17	X18	Y18	Z18	X19	Y19	Z19	X20	Y20	Z20	X21	Y21	Z21	X22	Y22	Z22	X23	Y23	Z23	X24	Y24	Z24	X25	Y25	Z25	X26	Y26	Z26	X27	Y27	Z27	X28	Y28	Z28	X29	Y29	Z29	X30	Y30	Z30	X31	Y31	Z31	X32	Y32	Z32	X33	Y33	Z33	X34	Y34	Z34	X35	Y35	Z35	X36	Y36	Z36	X37	Y37	Z37	X38	Y38	Z38	X39	Y39	Z39	X40	Y40	Z40	X41	Y41	Z41	X42	Y42	Z42	X43	Y43	Z43	X44	Y44	Z44	X45	Y45	Z45	X46	Y46	Z46	X47	Y47	Z47
																																																																																																																																														
59	0.58	-407.97366	1657.21997	932.38287	-381.11472	1654.38892	1061.93518	-540.56311	1610.8866	963.45276	-512.46973	1613.31616	1090.06128	-536.01227	1453.04944	1021.35889	-570.16443	1123.55933	1035.58496	-426.7457	1375.73792	1011.89813	-387.24841	1203.03442	1009.02539	-601.61456	1285.21899	1112.80286	-498.46133	1402.75415	855.80078	-521.74988	1198.93542	791.16486	-536.50201	1086.67139	784.73181	-523.21808	937.66656	760.17145	-461.49802	820.39941	792.42871	-527.45374	818.80188	764.3407	-490.42163	735.32312	758.70789	-455.5224	1412.11536	1175.67212	-472.49265	1217.45605	1276.21814	-446.85248	1099.75208	1292.94666	-386.73599	997.23096	1301.93298	-279.18536	899.43018	1250.09546	-320.87613	877.59424	1299.13574	-255.94754	824.89734	1289.68982	-391.00922	969.13245	922.71344	-390.81738	972.26324	1141.71436	-549.8703	988.75195	950.11731	-542.62701	994.91144	1118.00562	-382.00803	661.67737	855.01459	-326.72336	508.42941	879.08502	-430.81857	280.39508	893.37311	-481.92212	116.05659	933.13672	-514.22839	109.50875	986.84052	-359.12433	46.37171	906.94623	-464.55014	632.6908	1186.30505	-474.57697	506.94485	1162.81848	-559.55701	250.84608	1155.00281	-598.91687	70.02225	1100.81372	-640.15424	47.91513	1056.02283	-447.3371	30.63571	1103.73022	-491.54507	1705.349	1008.15985	NaN	NaN	NaN	NaN	NaN	NaN	NaN	NaN	NaN	NaN	NaN	NaN	NaN	NaN	NaN	NaN	NaN	NaN	NaN	NaN	NaN
60	0.59	-397.60284	1655.93335	932.20947	-370.55798	1653.28467	1061.75586	-530.13849	1609.67908	963.3728	-501.97134	1612.32568	1090.02161	-525.67059	1452.08057	1021.68604	-560.22125	1122.57117	1036.24683	-416.50061	1374.49377	1012.14886	-377.25272	1201.75085	1009.61932	-591.33539	1284.50366	1113.64795	-488.59769	1401.31812	856.11243	-515.21967	1197.85962	792.01636	-531.75885	1085.96521	785.36505	-521.00055	936.68024	760.74017	-461.00037	818.41693	792.41077	-527.38715	817.9502	764.82037	-492.03299	733.71606	759.10388	-445.03644	1411.26416	1175.91833	-460.88766	1216.76062	1276.88428	-434.31815	1099.37817	1293.75891	-372.49884	998.01569	1302.36865	-263.28412	902.50494	1249.88623	-304.58752	879.6557	1298.8219	-238.47343	828.36731	1289.27551	-380.77405	968.30884	923.59033	-381.9455	970.74609	1142.39246	-539.8233	987.73468	950.27496	-532.85565	993.65637	1118.08142	-370.41812	661.37604	855.26282	-314.34973	508.38614	879.75128	-408.94135	275.52707	893.71454	-451.17224	108.58257	933.04108	-482.43777	100.26788	987.31702	-325.36542	45.29265	905.49091	-457.71432	631.6076	1186.38892	-469.32877	505.92828	1163.16443	-557.31085	250.69594	1155.00403	-598.59009	70.30282	1100.70154	-639.91998	48.3836	1055.80969	-447.17401	30.63853	1103.8114	-481.0939	1704.22363	1007.93469	NaN	NaN	NaN	NaN	NaN	NaN	NaN	NaN	NaN	NaN	NaN	NaN	NaN	NaN	NaN	NaN	NaN	NaN	NaN	NaN	NaN
61	0.6	-387.0708	1654.51721	932.03601	-360.10947	1652.06665	1061.61206	-519.58258	1608.37073	963.31091	-491.42477	1611.15747	1089.90369	-515.23383	1450.91052	1021.96155	-550.15063	1121.45068	1036.80811	-406.19891	1373.15906	1012.33246	-367.20242	1200.38916	1010.11584	-580.95453	1283.58301	1114.2832	-478.78769	1399.91382	856.37097	-508.03201	1196.82568	792.43585	-526.75122	1085.22766	786.05756	-518.60919	935.77753	761.3078	-459.8443	816.43036	792.29242	-527.08618	817.22504	765.28601	-493.34775	732.35803	759.35504	-434.4628	1410.21167	1176.06335	-449.30554	1216.03296	1277.53479	-421.93036	1098.8645	1294.47839	-358.57559	998.71289	1302.91467	-247.71281	905.38873	1249.60144	-288.1391	881.76263	1298.86084	-221.32108	831.67719	1288.68323	-370.53668	967.2677	924.36719	-372.00494	969.43976	1143.12976	-529.60175	986.61145	950.36938	-523.18323	992.42902	1118.21545	-359.31921	660.68597	855.52161	-302.38843	508.0076	880.28229	-386.77304	270.5687	893.80823	-420.15494	101.52278	932.82001	-449.14258	90.06278	988.67249	-291.49905	44.62814	904.44263	-451.01257	630.48187	1186.43884	-464.15991	504.89243	1163.44934	-555.10065	250.60999	1155.00781	-598.22791	70.63454	1100.57959	-639.68494	48.95353	1055.56702	-447.05627	30.52763	1103.89807	-470.59976	1702.95361	1007.76575	NaN	NaN	NaN	NaN	NaN	NaN	NaN	NaN	NaN	NaN	NaN	NaN	NaN	NaN	NaN	NaN	NaN	NaN	NaN	NaN	NaN
62	0.61	-376.46793	1653.00378	931.88867	-349.60019	1650.7511	1061.47668	-509.17859	1607.02612	963.17896	-480.93106	1609.87427	1089.81543	-504.71866	1449.63086	1022.20251	-540.1228	1120.22278	1037.25671	-395.97592	1371.73242	1012.36652	-357.00909	1198.94043	1010.42578	-570.62653	1282.52722	1114.87512	-468.74698	1398.30835	856.56873	-501.40762	1195.75012	793.23065	-521.57593	1084.50549	786.75684	-516.03424	934.91321	761.86792	-459.64288	814.61871	792.80316	-526.58862	816.55487	765.9176	-494.23044	731.1535	759.59491	-423.82471	1409.03015	1176.15381	-437.66467	1214.98596	1277.9021	-409.62097	1098.22131	1295.10693	-344.62003	999.19678	1303.08752	-232.40656	908.09045	1249.28284	-272.21875	883.61005	1298.45166	-204.3945	834.81726	1288.05725	-360.18945	965.99945	924.94141	-362.25018	967.862	1143.66553	-519.28882	985.38043	950.37823	-513.44745	991.20544	1118.29749	-348.83051	659.58038	855.66217	-290.99124	507.24289	880.70569	-364.26608	265.44321	893.59265	-388.78119	95.05341	932.43463	-418.82034	83.64333	986.9389	-257.01199	44.41564	904.24603	-444.20798	629.34064	1186.48242	-458.82938	503.84598	1163.70703	-552.75269	250.54765	1154.99573	-597.81158	71.0488	1100.42871	-639.36816	49.63779	1055.24841	-446.87061	30.3372	1103.85657	-460.04269	1701.6134	1007.61133	NaN	NaN	NaN	NaN	NaN	NaN	NaN	NaN	NaN	NaN	NaN	NaN	NaN	NaN	NaN	NaN	NaN	NaN	NaN	NaN	NaN
63	0.62	-365.83694	1651.44641	931.7691	-338.84103	1649.20068	1061.30139	-498.44385	1605.45386	963.07788	-470.21643	1608.43994	1089.66907	-494.1564	1448.22913	1022.35229	-529.922	1118.86194	1037.50891	-385.52737	1370.20337	1012.34967	-346.8093	1197.375	1010.69165	-560.20062	1281.2865	1115.32397	-458.79517	1396.70325	856.68866	-494.21045	1194.68726	793.69348	-516.20313	1083.76758	787.49408	-513.36877	934.20203	762.51556	-458.32504	813.00256	792.62457	-525.68201	815.88593	766.4892	-494.7001	730.09125	759.73822	-413.09631	1407.68945	1176.13757	-426.06909	1213.84265	1278.25476	-397.42407	1097.42017	1295.66455	-330.89334	999.55194	1303.32251	-217.37114	910.61609	1248.81506	-256.56436	885.39386	1298.1532	-187.86586	837.79547	1287.34741	-349.75345	964.50745	925.45087	-352.54175	966.1795	1144.15588	-508.87381	984.08783	950.33154	-503.61493	989.89191	1118.28394	-338.77725	658.00037	855.77368	-280.034	506.0517	880.94867	-341.5817	260.52411	893.15607	-357.19589	89.07062	931.82971	-384.2674	74.38358	988.55725	-223.39626	44.59944	904.10559	-437.33096	628.14142	1186.51392	-453.33694	502.76535	1163.95483	-550.38074	250.52071	1154.94556	-597.49341	71.51253	1100.10034	-639.05646	50.42876	1054.96619	-446.72299	30.30324	1103.90869	-449.29489	1700.06335	1007.45178	NaN	NaN	NaN	NaN	NaN	NaN	NaN	NaN	NaN	NaN	NaN	NaN	NaN	NaN	NaN	NaN	NaN	NaN	NaN	NaN	NaN
64	0.63	-355.12131	1649.79126	931.60138	-328.13324	1647.59448	1061.17737	-487.85132	1603.95789	962.83386	-459.57037	1606.91431	1089.53589	-483.7027	1446.77832	1022.48853	-519.62445	1117.35559	1037.67517	-375.05066	1368.59668	1012.2572	-336.48291	1195.74121	1010.80981	-549.69965	1279.95667	1115.64624	-448.97418	1395.14099	856.74615	-487.00781	1193.61755	794.23859	-510.6955	1083.05908	788.2149	-510.41394	933.49945	763.08075	-456.96918	811.46698	792.50439	-524.45032	815.42169	767.16302	-494.7807	729.15631	759.79144	-402.3555	1406.19507	1176.05298	-414.57535	1212.65747	1278.66931	-385.29712	1096.44641	1296.14246	-317.38528	999.73779	1303.47266	-202.55402	912.90894	1248.26709	-241.05797	886.92792	1297.70215	-171.6214	840.53162	1286.55676	-339.09192	962.9234	925.80908	-342.72556	964.41943	1144.62329	-498.19772	982.66382	950.18689	-493.60083	988.57867	1118.14758	-329.18585	656.08069	855.84174	-269.61926	504.49551	881.10498	-318.96237	255.89636	892.50446	-325.60797	83.77818	931.11615	-355.09344	69.87006	985.25726	-189.35385	45.53219	904.62128	-430.48761	626.95532	1186.5293	-447.77109	501.68695	1164.18811	-548.09302	250.59782	1154.80872	-597.10443	72.12701	1100.13721	-638.71698	51.29438	1054.67261	-446.67743	30.31021	1104.00317	-438.46729	1698.47485	1007.26733	NaN	NaN	NaN	NaN	NaN	NaN	NaN	NaN	NaN	NaN	NaN	NaN	NaN	NaN	NaN	NaN	NaN	NaN	NaN	NaN	NaN
